simulation
nRows=30
nColumns=15
endheader
time  TH_x TH_y TH_z SC_y  SC_z  SC_x  AC_y  AC_z  AC_x  GH_y  GH_z  GH_yy  EL_x  PS_y
0.250014  0.000000  0.000000  0.000000  -45.745906  13.571509  -15.000000  59.254690  25.424955  13.477596  -32.605150  35.830308  20.406895  0.175877  121.038215
0.250070  0.000000  0.000000  0.000000  -45.745906  13.571509  -11.578947  60.022950  22.472794  11.585738  -32.605150  35.830308  20.406895  0.175877  121.038215
0.250126  0.000000  0.000000  0.000000  -45.745906  13.571509  -8.157895  60.672370  19.499491  9.773171  -32.605150  35.830308  20.406895  0.175877  121.038215
0.250181  0.000000  0.000000  0.000000  -45.745906  13.571509  -4.736842  61.212535  16.508796  8.026251  -32.605150  35.830308  20.406895  0.175877  121.038215
0.250237  0.000000  0.000000  0.000000  -45.745906  13.571509  -1.315789  61.651216  13.504034  6.332722  -32.605150  35.830308  20.406895  0.175877  121.038215
0.250293  0.000000  0.000000  0.000000  -45.745906  13.571509  2.105263  61.994572  10.488190  4.681427  -32.605150  35.830308  20.406895  0.175877  121.038215
0.250349  0.000000  0.000000  0.000000  -45.745906  13.571509  5.526316  62.247335  7.463987  3.062079  -32.605150  35.830308  20.406895  0.175877  121.038215
0.250405  0.000000  0.000000  0.000000  -45.745906  13.571509  8.947368  62.412927  4.433979  1.465003  -32.605150  35.830308  20.406895  0.175877  121.038215
0.250460  0.000000  0.000000  0.000000  -45.745906  13.571509  12.368421  62.493575  1.400566  -0.119007  -32.605150  35.830308  20.406895  0.175877  121.038215
0.250516  0.000000  0.000000  0.000000  -45.745906  13.571509  15.789474  62.490357  -1.633915  -1.698918  -32.605150  35.830308  20.406895  0.175877  121.038215
0.250572  0.000000  0.000000  0.000000  -45.745906  13.571509  19.210526  62.403227  -4.667151  -3.283612  -32.605150  35.830308  20.406895  0.175877  121.038215
0.250628  0.000000  0.000000  0.000000  -45.745906  13.571509  22.631579  62.231022  -7.696801  -4.882068  -32.605150  35.830308  20.406895  0.175877  121.038215
0.250684  0.000000  0.000000  0.000000  -45.745906  13.571509  26.052632  61.971434  -10.720449  -6.503526  -32.605150  35.830308  20.406895  0.175877  121.038215
0.250739  0.000000  0.000000  0.000000  -45.745906  13.571509  29.473684  61.620933  -13.735541  -8.157693  -32.605150  35.830308  20.406895  0.175877  121.038215
0.250795  0.000000  0.000000  0.000000  -45.745906  13.571509  32.894737  61.174685  -16.739332  -9.854921  -32.605150  35.830308  20.406895  0.175877  121.038215
0.250851  0.000000  0.000000  0.000000  -45.745906  13.571509  36.315789  60.626410  -19.728813  -11.606439  -32.605150  35.830308  20.406895  0.175877  121.038215
0.250907  0.000000  0.000000  0.000000  -45.745906  13.571509  39.736842  59.968211  -22.700633  -13.424603  -32.605150  35.830308  20.406895  0.175877  121.038215
0.250963  0.000000  0.000000  0.000000  -45.745906  13.571509  43.157895  59.190357  -25.651004  -15.323179  -32.605150  35.830308  20.406895  0.175877  121.038215
0.251018  0.000000  0.000000  0.000000  -45.745906  13.571509  46.578947  58.281002  -28.575583  -17.317670  -32.605150  35.830308  20.406895  0.175877  121.038215
0.251074  0.000000  0.000000  0.000000  -45.745906  13.571509  50.000000  57.225854  -31.469337  -19.425690  -32.605150  35.830308  20.406895  0.175877  121.038215
0.251130  0.000000  0.000000  0.000000  -39.392398  12.766042  -15.000000  61.325330  23.500164  1.763213  -23.594765  40.578261  55.451324  -0.078529  118.870185
0.251186  0.000000  0.000000  0.000000  -39.392398  12.766042  -11.578947  61.981621  20.489074  0.011580  -23.594765  40.578261  55.451324  -0.078529  118.870185
0.251242  0.000000  0.000000  0.000000  -39.392398  12.766042  -8.157895  62.529385  17.461102  -1.672345  -23.594765  40.578261  55.451324  -0.078529  118.870185
0.251298  0.000000  0.000000  0.000000  -39.392398  12.766042  -4.736842  62.976858  14.419428  -3.301032  -23.594765  40.578261  55.451324  -0.078529  118.870185
0.251353  0.000000  0.000000  0.000000  -39.392398  12.766042  -1.315789  63.330614  11.366893  -4.885750  -23.594765  40.578261  55.451324  -0.078529  118.870185
0.251409  0.000000  0.000000  0.000000  -39.392398  12.766042  2.105263  63.595703  8.306068  -6.436806  -23.594765  40.578261  55.451324  -0.078529  118.870185
0.251465  0.000000  0.000000  0.000000  -39.392398  12.766042  5.526316  63.775858  5.239334  -7.963812  -23.594765  40.578261  55.451324  -0.078529  118.870185
0.251521  0.000000  0.000000  0.000000  -39.392398  12.766042  8.947368  63.873580  2.168937  -9.475881  -23.594765  40.578261  55.451324  -0.078529  118.870185
0.251577  0.000000  0.000000  0.000000  -39.392398  12.766042  12.368421  63.890229  -0.902964  -10.981817  -23.594765  40.578261  55.451324  -0.078529  118.870185
0.251632  0.000000  0.000000  0.000000  -39.392398  12.766042  15.789474  63.826012  -3.974242  -12.490301  -23.594765  40.578261  55.451324  -0.078529  118.870185
